<?xml version="1.0" encoding="utf-8"?>
<!-- Generator: Adobe Illustrator 27.7.0, SVG Export Plug-In . SVG Version: 6.00 Build 0)  -->
<svg version="1.1" id="Layer_5" xmlns="http://www.w3.org/2000/svg" xmlns:xlink="http://www.w3.org/1999/xlink" x="0px" y="0px"
	 viewBox="0 0 46.5 43.7" style="enable-background:new 0 0 46.5 43.7;" xml:space="preserve">
<style type="text/css">
	.st0{fill:#404E4F;}
	.st1{fill:none;stroke:#404E4F;stroke-width:0.5999;stroke-miterlimit:9.9978;}
</style>
<g>
	<path class="st0" d="M26.9,27.5c2-5.8,4.5-11.4,7.6-16.8l-1.4,0c-0.8,8-6.5,14.5-8,22.3c-0.1,0.7,1.1,0.5,1.3,0.2
		c4.2-6,8.4-12.1,12.3-18.4l-1.4-0.2c-1.4,4-2.8,8.1-4.3,12.1c-0.3,0.8,1,0.8,1.3,0.3c2.8-4.2,5.7-8.4,8.5-12.6l-1.3-0.3
		c-1.6,3.9-2.7,8-3.4,12.2c-0.1,0.5,0.7,0.6,1.1,0.4c0.7-0.4,1.5-0.9,2.2-1.4c0.2-0.1,2.4-1.7,2.5-0.9c0.1,0.7,1.6,0.3,1.4-0.4
		c-0.5-3.1-5.9,1.1-6.9,1.7l1.1,0.4c0.7-4.1,1.8-8.1,3.3-11.9c0.3-0.7-1-0.8-1.3-0.3c-2.8,4.2-5.7,8.4-8.5,12.6l1.3,0.3
		c1.4-4,2.8-8.1,4.3-12.1c0.3-0.9-1.1-0.7-1.4-0.2c-3.9,6.2-8,12.1-12.2,18.1l1.3,0.2c1.6-7.8,7.2-14.3,8-22.3
		c0.1-0.8-1.2-0.5-1.4,0c-3,5.3-5.6,10.9-7.6,16.8C25.3,28.1,26.7,28.2,26.9,27.5L26.9,27.5L26.9,27.5z"/>
	<path class="st0" d="M22.7,19.2c-0.6,3.4-1.3,6.7-2.1,10.1l1.5-0.1c0.2-2.3,0.5-4.5,1-6.8c0.5-2,1.1-4.2,2.7-5.6
		c0.6-0.5,1.8-1.5,2.4-0.5c0.4,0.7,0.2,1.7,0.1,2.5c-0.4,1.7-1.2,3.3-2.4,4.6c-1.3,1.4-3,2.4-5,2.7c-0.3,0-0.7,0.3-0.6,0.6
		c0.1,0.3,0.6,0.3,0.8,0.3c4.1-0.8,7.7-4.1,8.6-8.3c0.2-0.9,0.3-2-0.1-2.9c-0.5-1-1.6-1.1-2.6-0.9c-2.3,0.7-3.9,2.9-4.6,5.1
		c-1.1,3-1.6,6.2-1.8,9.3c0,0.7,1.3,0.4,1.5-0.1c0.8-3.3,1.5-6.7,2.1-10.1C24.3,18.4,22.8,18.6,22.7,19.2L22.7,19.2L22.7,19.2z"/>
	<path class="st0" d="M7.3,13.8c-0.3,2.6-0.6,5.1-0.9,7.7l-0.5,3.9c-0.1,0.6-0.1,1.3-0.2,1.9c0,0.2-0.1,1.2-0.4,1.3
		c-0.3,0.1-1.1-0.4-1.3-0.5c-0.4-0.3-0.9-0.7-1.1-1.1c-0.2-0.4-0.3-0.8-0.3-1.2c0-0.4,0-0.5,0.4-0.6c0.3-0.1,0.7-0.1,1-0.2
		c2.5-0.5,5.1-1,7.6-1.4c0.2,0,0.8-0.2,0.8-0.4c0-0.3-0.4-0.2-0.6-0.2c-2.6,0.4-5.2,0.9-7.8,1.4c-0.8,0.2-2.1,0.2-2.7,0.9
		c-0.5,0.6-0.2,1.7,0.2,2.3c0.9,1.4,3.2,2.3,4.7,1.2C7,28.2,7,27.3,7.1,26.4l0.5-4c0.4-3,0.7-5.9,1.1-8.9
		C8.7,13.1,7.3,13.4,7.3,13.8L7.3,13.8L7.3,13.8z"/>
	<path class="st0" d="M12,14.2c-0.6,5-1.2,9.9-1.8,14.9c-0.1,0.7,1.4,0.4,1.5-0.1c0.6-5,1.2-9.9,1.8-14.9
		C13.5,13.4,12.1,13.6,12,14.2C12,14.2,12,14.2,12,14.2z"/>
	<path class="st0" d="M14.6,28.1c-0.3,0-0.5,0.1-0.7,0.2c-0.1,0.1-0.2,0.1-0.3,0.2c0,0.1-0.1,0.1-0.1,0.2c0,0.1,0,0.1,0,0.2
		c0,0.1,0,0.2,0.1,0.3c0.1,0.1,0.2,0.2,0.4,0.3c0.1,0,0.3,0,0.4,0c0.2,0,0.4,0,0.5-0.1c0.3-0.1,0.6-0.2,0.9-0.5
		c0.1-0.1,0.2-0.3,0.2-0.4c0-0.2,0-0.3-0.1-0.5c0-0.1-0.1-0.1-0.2-0.2c-0.1-0.1-0.2-0.1-0.4-0.1c-0.4,0-0.7,0.1-1,0.2
		c-0.1,0-0.1,0.1-0.2,0.1c-0.1,0.1-0.1,0.1-0.2,0.2c0,0,0,0.1,0,0.1c0,0,0.1,0.1,0.1,0.1c0.1,0,0.1,0,0.2,0c0.1,0,0.2,0,0.3,0
		c0.2,0,0.4-0.1,0.5-0.2l0.1-0.1c0.1,0,0.1-0.1,0.2-0.2l0,0c0,0,0,0-0.1,0.1c0,0,0,0,0-0.1l-0.1,0.1c0,0,0,0,0,0l-0.1,0.1
		c0,0,0,0,0,0L15,28.4c0,0,0,0,0,0l-0.2,0.1c0,0,0,0,0,0l-0.2,0c0,0,0,0,0,0l-0.2,0c0,0,0,0,0,0h-0.2c0,0,0,0,0.1,0l-0.1,0
		c0,0,0.1,0,0.1,0l-0.1,0c0.1,0,0.1,0.1,0.1,0.1l0-0.1c0.1,0.1,0.1,0.2,0.1,0.4v-0.1c0,0.1,0,0.2-0.1,0.3l0.1-0.1
		c0,0-0.1,0.1-0.1,0.1l0.1-0.1c0,0-0.1,0-0.1,0.1l0.1-0.1c0,0,0,0-0.1,0l0.2-0.1c0,0,0,0-0.1,0l0.2-0.1c0,0,0,0-0.1,0l0.2,0
		c0,0,0,0-0.1,0l0.2,0c0,0,0,0-0.1,0h0.2c0,0,0,0-0.1,0l0.1,0c0,0-0.1,0-0.1,0l0.1,0C15,29,15,29,14.9,28.9l0,0.1
		c-0.1-0.1-0.1-0.2-0.1-0.3v0.1c0-0.1,0-0.2,0.1-0.2l-0.1,0.1c0,0,0,0,0.1-0.1l-0.1,0.1c0,0,0,0,0,0l-0.1,0.1c0,0,0,0,0,0l-0.2,0.1
		c0,0,0,0,0,0l-0.2,0.1c0,0,0,0,0,0l-0.2,0c0,0,0,0,0,0c0.2,0,0.4-0.1,0.5-0.2c0.1,0,0.1-0.1,0.2-0.1c0,0,0.1-0.1,0.1-0.1v-0.1
		c0-0.1-0.1-0.1-0.1-0.1C14.9,28.1,14.7,28.1,14.6,28.1L14.6,28.1L14.6,28.1z"/>
	<path class="st0" d="M11.7,36.5v0.7h-0.2v-1.5h0.2V36.5l0.7-0.1v-0.7h0.2v1.5h-0.2v-0.7H11.7z"/>
	<path class="st0" d="M13.6,37.2c-0.1,0-0.1,0-0.2,0c-0.1,0-0.1-0.1-0.2-0.1c0,0-0.1-0.1-0.1-0.2c0-0.1,0-0.1,0-0.2
		c0-0.1,0-0.2,0-0.2c0-0.1,0.1-0.1,0.1-0.2c0-0.1,0.1-0.1,0.2-0.1c0.1,0,0.1,0,0.2,0c0.1,0,0.1,0,0.2,0c0.1,0,0.1,0.1,0.2,0.1
		s0.1,0.1,0.1,0.1c0,0.1,0,0.1,0,0.2h-0.8c0,0.1,0,0.1,0,0.2c0,0.1,0,0.1,0.1,0.2c0,0,0.1,0.1,0.1,0.1c0,0,0.1,0,0.2,0
		c0,0,0.1,0,0.1,0c0,0,0.1,0,0.1-0.1c0,0,0.1-0.1,0.1-0.1c0,0,0-0.1,0-0.1l0.1,0c0,0.1,0,0.1-0.1,0.2c0,0-0.1,0.1-0.1,0.1
		c0,0-0.1,0.1-0.2,0.1C13.7,37.2,13.6,37.2,13.6,37.2L13.6,37.2z M13.8,36.4c0,0,0-0.1,0-0.1c0,0,0-0.1-0.1-0.1c0,0-0.1,0-0.1-0.1
		c0,0-0.1,0-0.1,0c0,0-0.1,0-0.1,0c0,0-0.1,0-0.1,0.1c0,0,0,0.1-0.1,0.1c0,0,0,0.1,0,0.1H13.8L13.8,36.4z"/>
	<path class="st0" d="M14.7,37.2h-0.2v-1.6l0.2-0.1h0.1V37.2L14.7,37.2z"/>
	<path class="st0" d="M15.7,37.2c-0.1,0-0.1,0-0.2,0c-0.1,0-0.1-0.1-0.2-0.1c0,0-0.1-0.1-0.1-0.2c0-0.1,0-0.1,0-0.2
		c0-0.1,0-0.2,0-0.2c0-0.1,0.1-0.1,0.1-0.2c0-0.1,0.1-0.1,0.2-0.1c0.1,0,0.1,0,0.2,0c0.1,0,0.1,0,0.2,0s0.1,0.1,0.2,0.1
		c0,0,0.1,0.1,0.1,0.1c0,0.1,0,0.1,0,0.2h-0.8c0,0.1,0,0.1,0,0.2c0,0.1,0,0.1,0.1,0.2c0,0,0.1,0.1,0.1,0.1c0,0,0.1,0,0.2,0
		c0,0,0.1,0,0.1,0c0,0,0.1,0,0.1-0.1c0,0,0.1-0.1,0.1-0.1c0,0,0-0.1,0-0.1l0.1,0c0,0.1,0,0.1-0.1,0.2c0,0-0.1,0.1-0.1,0.1
		c0,0-0.1,0.1-0.2,0.1C15.7,37.2,15.7,37.2,15.7,37.2L15.7,37.2z M15.9,36.4c0,0,0-0.1,0-0.1c0,0,0-0.1-0.1-0.1c0,0-0.1,0-0.1-0.1
		c0,0-0.1,0-0.1,0c0,0-0.1,0-0.1,0c0,0-0.1,0-0.1,0.1s0,0.1-0.1,0.1c0,0,0,0.1,0,0.1H15.9L15.9,36.4z"/>
	<path class="st0" d="M16.7,36L16.7,36l0.1,0.2c0.1-0.1,0.1-0.1,0.2-0.2s0.1-0.1,0.2-0.1c0,0,0.1,0,0.1,0c0,0,0.1,0,0.1,0.1
		c0,0,0,0.1,0.1,0.1s0,0.1,0,0.1v0.8h-0.2v-0.8c0,0,0-0.1,0-0.1s0,0,0-0.1c0,0,0,0-0.1,0c0,0,0,0-0.1,0c0,0,0,0-0.1,0c0,0,0,0-0.1,0
		c0,0,0,0-0.1,0c0,0,0,0-0.1,0.1v0.8h-0.2v-1.1L16.7,36L16.7,36z"/>
	<path class="st0" d="M18.7,37.2C18.7,37.2,18.6,37.2,18.7,37.2c-0.1-0.1-0.1-0.1-0.1-0.1c0,0,0,0-0.1,0.1c0,0,0,0-0.1,0.1
		c0,0-0.1,0-0.1,0c0,0-0.1,0-0.1,0c0,0-0.1,0-0.1,0c0,0-0.1,0-0.1-0.1c0,0,0-0.1-0.1-0.1c0,0,0-0.1,0-0.1c0,0,0-0.1,0-0.1
		c0,0,0-0.1,0.1-0.1c0,0,0.1-0.1,0.1-0.1c0,0,0.1,0,0.1-0.1c0,0,0.1,0,0.2,0c0,0,0.1,0,0.2,0v-0.1c0,0,0-0.1,0-0.1c0,0,0-0.1,0-0.1
		c0,0,0,0-0.1,0c0,0,0,0-0.1,0c0,0-0.1,0-0.1,0c0,0,0,0-0.1,0s0,0,0,0.1c0,0,0,0.1,0,0.1h-0.2c0,0,0-0.1,0-0.1c0,0,0.1-0.1,0.1-0.1
		c0,0,0.1,0,0.1-0.1c0,0,0.1,0,0.2,0c0.1,0,0.1,0,0.2,0c0,0,0.1,0,0.1,0.1c0,0,0,0.1,0.1,0.1c0,0,0,0.1,0,0.1v0.7c0,0,0,0.1,0,0.1
		c0,0,0,0,0.1,0.1C18.9,37.2,18.7,37.2,18.7,37.2z M18.6,36.5C18.6,36.5,18.5,36.6,18.6,36.5c-0.1,0-0.2,0.1-0.2,0.1
		c0,0-0.1,0-0.1,0c0,0-0.1,0-0.1,0.1c0,0,0,0,0,0.1c0,0,0,0,0,0.1c0,0,0,0,0,0.1c0,0,0,0,0,0.1c0,0,0,0,0.1,0c0,0,0,0,0.1,0
		s0,0,0.1,0c0,0,0,0,0.1,0c0,0,0,0,0.1,0c0,0,0,0,0.1,0L18.6,36.5L18.6,36.5z"/>
	<path class="st0" d="M19.7,35.7H20v1.4h0.7v0.1h-1V35.7L19.7,35.7z"/>
	<path class="st0" d="M21.5,37.2c-0.1,0-0.2,0-0.2,0s-0.1-0.1-0.2-0.1c0,0-0.1-0.1-0.1-0.2c0-0.1,0-0.1,0-0.2c0-0.1,0-0.2,0-0.2
		c0-0.1,0.1-0.1,0.1-0.2c0,0,0.1-0.1,0.2-0.1s0.1,0,0.2,0c0.1,0,0.2,0,0.2,0c0.1,0,0.1,0.1,0.2,0.1s0.1,0.1,0.1,0.2
		c0,0.1,0,0.1,0,0.2c0,0.1,0,0.2,0,0.2c0,0.1-0.1,0.1-0.1,0.2c0,0.1-0.1,0.1-0.2,0.1C21.7,37.2,21.6,37.2,21.5,37.2L21.5,37.2z
		 M21.6,37.1c0,0,0.1,0,0.1,0c0,0,0.1,0,0.1-0.1c0,0,0-0.1,0.1-0.1s0-0.1,0-0.2c0-0.1,0-0.2,0-0.2c0-0.1,0-0.1-0.1-0.2
		c0,0-0.1-0.1-0.1-0.1c0,0-0.1,0-0.2,0c0,0-0.1,0-0.1,0c0,0-0.1,0-0.1,0.1c0,0,0,0.1-0.1,0.1c0,0,0,0.1,0,0.2c0,0.1,0,0.2,0,0.2
		c0,0.1,0,0.1,0.1,0.2c0,0,0.1,0.1,0.1,0.1C21.5,37.1,21.5,37.1,21.6,37.1L21.6,37.1z"/>
	<path class="st0" d="M22.7,36.1v0.8c0,0,0,0,0,0.1c0,0,0,0,0,0.1s0,0,0.1,0c0,0,0.1,0,0.1,0c0,0,0,0,0.1,0c0,0,0,0,0.1,0
		c0,0,0,0,0.1-0.1c0,0,0,0,0-0.1v-0.8h0.2v1.1h-0.2V37c0,0,0,0.1-0.1,0.1c0,0-0.1,0-0.1,0.1s-0.1,0-0.1,0c0,0-0.1,0-0.1,0
		c0,0-0.1,0-0.1,0c0,0-0.1,0-0.1-0.1c0,0-0.1-0.1-0.1-0.1c0,0,0-0.1,0-0.1v-0.8L22.7,36.1L22.7,36.1z"/>
	<path class="st0" d="M23.9,35.6C23.9,35.6,23.9,35.6,23.9,35.6C23.9,35.6,23.9,35.5,23.9,35.6c0-0.1,0.1-0.1,0.1-0.1c0,0,0,0,0,0
		s0,0,0,0s0,0,0,0c0,0,0,0,0,0c0,0,0,0,0,0s0,0,0,0s0,0,0,0c0,0,0,0,0,0c0,0,0,0,0,0s0,0,0,0C24,35.7,23.9,35.7,23.9,35.6
		C23.9,35.7,23.9,35.7,23.9,35.6C23.9,35.7,23.9,35.6,23.9,35.6z M23.9,36.1l0.2-0.1h0.1v1.2h-0.2L23.9,36.1L23.9,36.1z"/>
	<path class="st0" d="M25,37.1C25,37.1,25,37.1,25,37.1c0.1,0,0.1,0,0.1,0s0,0,0,0c0,0,0,0,0-0.1c0,0,0-0.1,0-0.1c0,0,0,0-0.1-0.1
		c0,0-0.1,0-0.1-0.1c0,0-0.1,0-0.1,0c0,0-0.1,0-0.1-0.1c0,0-0.1,0-0.1-0.1c0,0,0-0.1-0.1-0.1c0,0,0-0.1,0-0.1c0,0,0-0.1,0-0.1
		c0,0,0-0.1,0.1-0.1c0,0,0.1,0,0.1-0.1c0,0,0.1,0,0.2,0c0,0,0.1,0,0.1,0c0,0,0.1,0,0.1,0c0,0,0.1,0,0.1,0.1c0,0,0.1,0.1,0.1,0.1
		l-0.1,0.1c0-0.1-0.1-0.1-0.1-0.2s-0.1,0-0.2,0c0,0-0.1,0-0.1,0c0,0,0,0-0.1,0c0,0,0,0,0,0s0,0,0,0.1c0,0,0,0.1,0,0.1
		c0,0,0,0,0.1,0.1c0,0,0.1,0,0.1,0.1c0,0,0.1,0,0.1,0c0,0,0.1,0,0.1,0.1c0,0,0.1,0,0.1,0.1c0,0,0.1,0.1,0.1,0.1s0,0.1,0,0.1
		c0,0,0,0.1,0,0.1s0,0.1-0.1,0.1s-0.1,0.1-0.1,0.1S25,37.2,25,37.1C24.9,37.2,24.9,37.2,25,37.1c-0.1,0.1-0.1,0.1-0.2,0
		c0,0-0.1,0-0.1-0.1c0,0-0.1-0.1-0.1-0.1l0.1-0.1c0,0,0,0.1,0.1,0.1c0,0,0,0,0.1,0.1C24.8,37.1,24.9,37.1,25,37.1
		C24.9,37.2,24.9,37.2,25,37.1L25,37.1z"/>
	<path class="st0" d="M26.2,37.2c-0.1,0-0.1,0-0.2,0s-0.1-0.1-0.2-0.1c0,0-0.1-0.1-0.1-0.2c0-0.1,0-0.1,0-0.2c0-0.1,0-0.2,0-0.2
		c0-0.1,0.1-0.1,0.1-0.2s0.1-0.1,0.2-0.1c0.1,0,0.1,0,0.2,0c0.1,0,0.1,0,0.2,0c0.1,0,0.1,0.1,0.2,0.1c0,0,0.1,0.1,0.1,0.1
		c0,0.1,0,0.1,0,0.2h-0.8c0,0.1,0,0.1,0,0.2c0,0.1,0,0.1,0.1,0.2c0,0,0.1,0.1,0.1,0.1c0,0,0.1,0,0.2,0c0,0,0.1,0,0.1,0
		c0,0,0.1,0,0.1-0.1c0,0,0.1-0.1,0.1-0.1c0,0,0-0.1,0-0.1l0.1,0c0,0.1,0,0.1-0.1,0.2c0,0-0.1,0.1-0.1,0.1c0,0-0.1,0.1-0.2,0.1
		C26.3,37.2,26.3,37.2,26.2,37.2L26.2,37.2z M26.5,36.4c0,0,0-0.1,0-0.1c0,0,0-0.1-0.1-0.1c0,0-0.1,0-0.1-0.1c0,0-0.1,0-0.1,0
		c0,0-0.1,0-0.1,0c0,0-0.1,0-0.1,0.1s0,0.1-0.1,0.1c0,0,0,0.1,0,0.1H26.5L26.5,36.4z"/>
	<path class="st0" d="M27.7,35.7h0.5c0.1,0,0.1,0,0.2,0c0.1,0,0.1,0,0.2,0.1c0,0,0.1,0.1,0.1,0.1c0,0,0,0.1,0,0.2s0,0.1,0,0.2
		c0,0-0.1,0.1-0.1,0.1c0,0-0.1,0.1-0.2,0.1c-0.1,0-0.1,0-0.2,0c0,0,0,0-0.1,0c0,0,0,0-0.1,0c0,0,0,0-0.1,0s0,0,0,0v0.7h-0.2
		L27.7,35.7L27.7,35.7z M27.9,36.4C27.9,36.4,28,36.5,27.9,36.4c0.1,0,0.1,0,0.2,0c0,0,0.1,0,0.1,0c0,0,0.1,0,0.1-0.1
		c0,0,0-0.1,0.1-0.1c0,0,0-0.1,0-0.1c0,0,0-0.1,0-0.1c0,0,0-0.1-0.1-0.1c0,0-0.1,0-0.1-0.1c0,0-0.1,0-0.1,0h-0.2V36.4L27.9,36.4z"/>
	<path class="st0" d="M29.5,35.6C29.5,35.6,29.5,35.6,29.5,35.6c-0.1,0-0.1,0-0.1,0.1c0,0,0,0,0,0.1c0,0,0,0.1,0,0.1v0.3h0.3v0.1
		h-0.3v1h-0.2v-1h-0.2v-0.1h0.2v-0.1c0-0.1,0-0.1,0-0.2c0,0,0-0.1,0.1-0.1c0,0,0.1-0.1,0.1-0.1C29.4,35.5,29.5,35.5,29.5,35.6
		c0.1-0.1,0.1-0.1,0.1-0.1c0,0,0.1,0,0.1,0c0,0,0.1,0,0.1,0.1c0,0,0,0.1,0.1,0.1l-0.2,0.1c0,0,0-0.1,0-0.1c0,0,0-0.1,0-0.1
		c0,0,0,0-0.1-0.1C29.6,35.6,29.6,35.6,29.5,35.6L29.5,35.6z"/>
	<path class="st0" d="M30.4,37.2c-0.1,0-0.1,0-0.2,0S30,37.1,30,37.1c0,0-0.1-0.1-0.1-0.2c0-0.1,0-0.1,0-0.2c0-0.1,0-0.2,0-0.2
		c0-0.1,0.1-0.1,0.1-0.2c0-0.1,0.1-0.1,0.2-0.1c0.1,0,0.1,0,0.2,0c0.1,0,0.1,0,0.2,0s0.1,0.1,0.2,0.1c0,0,0.1,0.1,0.1,0.1
		c0,0.1,0,0.1,0,0.2H30c0,0.1,0,0.1,0,0.2c0,0.1,0,0.1,0.1,0.2c0,0,0.1,0.1,0.1,0.1c0,0,0.1,0,0.2,0c0,0,0.1,0,0.1,0
		c0,0,0.1,0,0.1-0.1c0,0,0.1-0.1,0.1-0.1c0,0,0-0.1,0-0.1l0.1,0c0,0.1,0,0.1-0.1,0.2s-0.1,0.1-0.1,0.1c0,0-0.1,0.1-0.2,0.1
		C30.5,37.2,30.4,37.2,30.4,37.2L30.4,37.2z M30.6,36.4c0,0,0-0.1,0-0.1c0,0,0-0.1-0.1-0.1c0,0-0.1,0-0.1-0.1c0,0-0.1,0-0.1,0
		c0,0-0.1,0-0.1,0c0,0-0.1,0-0.1,0.1c0,0,0,0.1-0.1,0.1c0,0,0,0.1,0,0.1H30.6L30.6,36.4z"/>
	<path class="st0" d="M31.8,35.6C31.8,35.6,31.7,35.6,31.8,35.6c-0.1,0-0.1,0-0.1,0.1c0,0,0,0,0,0.1c0,0,0,0.1,0,0.1v0.3h0.3v0.1
		h-0.3v1h-0.2v-1h-0.2v-0.1h0.2v-0.1c0-0.1,0-0.1,0-0.2c0,0,0-0.1,0.1-0.1c0,0,0.1-0.1,0.1-0.1C31.7,35.5,31.7,35.5,31.8,35.6
		c0.1-0.1,0.1-0.1,0.1-0.1c0,0,0.1,0,0.1,0c0,0,0.1,0,0.1,0.1c0,0,0,0.1,0.1,0.1L32,35.8c0,0,0-0.1,0-0.1c0,0,0-0.1,0-0.1
		c0,0,0,0-0.1-0.1C31.8,35.6,31.8,35.6,31.8,35.6L31.8,35.6z"/>
	<path class="st0" d="M32.6,35.6C32.6,35.6,32.6,35.6,32.6,35.6c-0.1,0-0.1,0-0.1,0.1c0,0,0,0,0,0.1c0,0,0,0.1,0,0.1v0.3h0.3v0.1
		h-0.3v1h-0.2v-1H32v-0.1h0.2v-0.1c0-0.1,0-0.1,0-0.2c0,0,0-0.1,0.1-0.1s0.1-0.1,0.1-0.1C32.5,35.5,32.6,35.5,32.6,35.6
		c0.1-0.1,0.1-0.1,0.1-0.1c0,0,0.1,0,0.1,0c0,0,0.1,0,0.1,0.1c0,0,0,0.1,0.1,0.1l-0.2,0.1c0,0,0-0.1,0-0.1c0,0,0-0.1,0-0.1
		c0,0,0,0-0.1-0.1C32.7,35.6,32.7,35.6,32.6,35.6L32.6,35.6z"/>
	<path class="st0" d="M33.5,37.2c-0.1,0-0.1,0-0.2,0s-0.1-0.1-0.2-0.1c0,0-0.1-0.1-0.1-0.2c0-0.1,0-0.1,0-0.2c0-0.1,0-0.2,0-0.2
		c0-0.1,0.1-0.1,0.1-0.2s0.1-0.1,0.2-0.1c0.1,0,0.1,0,0.2,0c0.1,0,0.1,0,0.2,0s0.1,0.1,0.2,0.1s0.1,0.1,0.1,0.1c0,0.1,0,0.1,0,0.2
		h-0.8c0,0.1,0,0.1,0,0.2c0,0.1,0,0.1,0.1,0.2c0,0,0.1,0.1,0.1,0.1c0,0,0.1,0,0.2,0c0,0,0.1,0,0.1,0c0,0,0.1,0,0.1-0.1
		c0,0,0.1-0.1,0.1-0.1c0,0,0-0.1,0-0.1l0.1,0c0,0.1,0,0.1-0.1,0.2c0,0-0.1,0.1-0.1,0.1c0,0-0.1,0.1-0.2,0.1
		C33.6,37.2,33.5,37.2,33.5,37.2L33.5,37.2z M33.7,36.4c0,0,0-0.1,0-0.1c0,0,0-0.1-0.1-0.1c0,0-0.1,0-0.1-0.1c0,0-0.1,0-0.1,0
		c0,0-0.1,0-0.1,0c0,0-0.1,0-0.1,0.1s0,0.1-0.1,0.1c0,0,0,0.1,0,0.1H33.7L33.7,36.4z"/>
	<path class="st0" d="M34.6,36L34.6,36l0.1,0.2c0,0,0-0.1,0.1-0.1c0,0,0.1,0,0.1-0.1c0,0,0.1,0,0.1,0c0,0,0.1,0,0.1,0
		c0,0,0.1,0,0.1,0c0,0,0.1,0,0.1,0l-0.1,0.2c0,0,0,0,0,0c0,0,0,0,0,0c0,0,0,0,0,0s0,0,0,0c0,0-0.1,0-0.1,0s0,0-0.1,0
		c0,0,0,0-0.1,0.1c0,0,0,0,0,0.1v0.8h-0.2v-1.1L34.6,36L34.6,36z"/>
	<polyline class="st1" points="2.8,13.4 2.8,1.4 43.7,1.4 43.7,13.4 	"/>
	<polyline class="st1" points="2.8,30.4 2.8,42.3 43.7,42.3 43.7,30.4 	"/>
</g>
</svg>
